<svg width="138.000000" height="140.630981" viewBox="0 0 138 140.631" fill="none" xmlns="http://www.w3.org/2000/svg" xmlns:xlink="http://www.w3.org/1999/xlink">
	<desc>
			Created with Pixso.
	</desc>
	<defs/>
	<rect id="logo" width="138.000000" height="140.630981" fill="#FFFFFF" fill-opacity="0"/>
	<path id="Vector 5" d="M2.66 23.49C11.34 16.05 28.7 47.67 53.5 47.67C78.31 47.67 107.45 -8.76 116.13 1.17C124.82 11.09 87.76 40.54 91.33 76.82C94.9 113.09 149 134.49 135.98 138.21C122.95 141.93 99.7 112.78 74.59 115.26C49.47 117.74 50.4 143.78 42.96 140.31C35.52 136.84 40.48 128.28 40.48 115.5C40.48 102.72 37.23 98.05 26.84 91.7C16.45 85.34 2.66 96.66 0.18 86.12C-2.3 75.58 21.57 80.47 22.5 64.04C23.43 47.6 -6.03 30.93 2.66 23.49Z" fill="#6B46C1" fill-opacity="1.000000" fill-rule="evenodd"/>
	<path id="path" d="M59.5 84.51C61.23 84.51 62.9 83.82 64.13 82.6C65.35 81.38 66.04 79.72 66.04 78C66.04 76.27 65.35 74.61 64.13 73.39C62.9 72.17 61.23 71.48 59.5 71.48C57.76 71.48 56.09 72.17 54.86 73.39C53.64 74.61 52.95 76.27 52.95 78C52.95 79.72 53.64 81.38 54.86 82.6C56.09 83.82 57.76 84.51 59.5 84.51Z" fill="#D4CAED" fill-opacity="1.000000" fill-rule="nonzero"/>
	<path id="path" d="M36.19 76.79C39.44 67.03 48.64 60 59.5 60C70.35 60 79.55 67.03 82.8 76.77C83.06 77.56 83.06 78.41 82.8 79.2C79.55 88.96 70.35 96 59.49 96C48.64 96 39.44 88.96 36.19 79.22C35.93 78.43 35.93 77.58 36.19 76.79ZM70.95 78C70.95 81.03 69.75 83.95 67.6 86.09C65.45 88.24 62.53 89.45 59.5 89.45C56.46 89.45 53.54 88.24 51.39 86.09C49.24 83.95 48.04 81.03 48.04 78C48.04 74.96 49.24 72.04 51.39 69.9C53.54 67.75 56.46 66.54 59.5 66.54C62.53 66.54 65.45 67.75 67.6 69.9C69.75 72.04 70.95 74.96 70.95 78Z" fill="#D4CAED" fill-opacity="1.000000" fill-rule="evenodd"/>
</svg>
