<svg width="64" height="64" viewBox="0 0 64 64" fill="none" xmlns="http://www.w3.org/2000/svg">
<g clip-path="url(#clip0_82_151)">
<path d="M32 8C27.2533 8 22.6131 9.40758 18.6663 12.0447C14.7195 14.6819 11.6434 18.4302 9.8269 22.8156C8.0104 27.201 7.53512 32.0266 8.46116 36.6822C9.38721 41.3377 11.673 45.6141 15.0294 48.9706C18.3859 52.327 22.6623 54.6128 27.3178 55.5388C31.9734 56.4649 36.799 55.9896 41.1844 54.1731C45.5698 52.3566 49.3181 49.2805 51.9553 45.3337C54.5924 41.3869 56 36.7468 56 32C55.9926 25.6371 53.4617 19.5369 48.9624 15.0376C44.4631 10.5384 38.3629 8.00741 32 8V8ZM45.854 24.4L32.164 42.978C32.0024 43.1924 31.7997 43.3725 31.5677 43.5078C31.3357 43.643 31.0791 43.7307 30.8129 43.7657C30.5466 43.8007 30.2761 43.7823 30.017 43.7117C29.758 43.641 29.5156 43.5194 29.304 43.354L19.528 35.538C19.3229 35.3738 19.1521 35.1709 19.0254 34.9407C18.8987 34.7106 18.8186 34.4577 18.7896 34.1966C18.7311 33.6693 18.8845 33.1403 19.216 32.726C19.5475 32.3117 20.03 32.0461 20.5574 31.9876C21.0847 31.9291 21.6137 32.0825 22.028 32.414L30.18 38.936L42.634 22.034C42.7839 21.809 42.9779 21.6168 43.2043 21.4689C43.4306 21.321 43.6845 21.2205 43.9508 21.1735C44.2171 21.1265 44.4901 21.134 44.7533 21.1955C45.0166 21.2571 45.2647 21.3713 45.4826 21.5314C45.7004 21.6915 45.8836 21.8941 46.021 22.127C46.1583 22.3598 46.247 22.6181 46.2818 22.8863C46.3165 23.1544 46.2965 23.4268 46.2229 23.6869C46.1494 23.9471 46.0239 24.1897 45.854 24.4Z" fill="#44337A"/>
</g>
<defs>
<clipPath id="clip0_82_151">
<rect width="48" height="48" fill="white" transform="translate(8 8)"/>
</clipPath>
</defs>
</svg>
