<svg width="64" height="64" viewBox="0 0 64 64" fill="none" xmlns="http://www.w3.org/2000/svg">
<path d="M56 50.6667V13.3333C56 10.4 53.6 8 50.6667 8H13.3333C10.4 8 8 10.4 8 13.3333V50.6667C8 53.6 10.4 56 13.3333 56H50.6667C53.6 56 56 53.6 56 50.6667ZM22.6667 36L29.3333 44.0267L38.6667 32L50.6667 48H13.3333L22.6667 36Z" fill="#44337A"/>
<circle cx="51" cy="51" r="13" fill="#6B46C1"/>
<path d="M55 53V55H47V53H45.6667V55C45.6667 55.7333 46.2667 56.3333 47 56.3333H55C55.7333 56.3333 56.3333 55.7333 56.3333 55V53H55ZM47.6667 49L48.6067 49.94L50.3333 48.22V53.6666H51.6667V48.22L53.3933 49.94L54.3333 49L51 45.6666L47.6667 49Z" fill="white"/>
</svg>
