<svg id="eesKywzNGDd1" xmlns="http://www.w3.org/2000/svg" xmlns:xlink="http://www.w3.org/1999/xlink" viewBox="0 0 138 140.631" shape-rendering="geometricPrecision" text-rendering="geometricPrecision" project-id="2e9a3b5072b44cf3b658584ebd7fad06" export-id="067c600bb764458287a4376c939cbdc5" cached="false">
<style><![CDATA[
#eesKywzNGDd4_ts {animation: eesKywzNGDd4_ts__ts 3000ms linear infinite normal forwards}@keyframes eesKywzNGDd4_ts__ts { 0% {transform: translate(59.494997px,78px) scale(1,1)} 16.666667% {transform: translate(59.494997px,78px) scale(0.7,0.7)} 33.333333% {transform: translate(59.494997px,78px) scale(1,1)} 50% {transform: translate(59.494997px,78px) scale(0.7,0.7)} 66.666667% {transform: translate(59.494997px,78px) scale(1,1)} 83.333333% {transform: translate(59.494997px,78px) scale(0.7,0.7)} 100% {transform: translate(59.494997px,78px) scale(1,1)}} #eesKywzNGDd13_tr {animation: eesKywzNGDd13_tr__tr 3000ms linear infinite normal forwards}@keyframes eesKywzNGDd13_tr__tr { 0% {transform: translate(135.33781px,207.03926px) rotate(720deg);animation-timing-function: cubic-bezier(0.415,0.08,0.115,0.955)} 100% {transform: translate(135.33781px,207.03926px) rotate(439.480519deg)}} #eesKywzNGDd14_tr {animation: eesKywzNGDd14_tr__tr 3000ms linear infinite normal forwards}@keyframes eesKywzNGDd14_tr__tr { 0% {transform: translate(11.12px,29.9px) rotate(-720deg);animation-timing-function: cubic-bezier(0.415,0.08,0.115,0.955)} 100% {transform: translate(11.12px,29.9px) rotate(-439.480519deg)}}
]]></style>
<defs></defs><rect width="138" height="140.631" rx="0" ry="0" fill="#fff" fill-opacity="0"/><path d="M2.66,23.49C11.34,16.05,28.7,47.67,53.5,47.67c24.81,0,53.95-56.43,62.63-46.5c8.69,9.92-28.37,39.37-24.8,75.65c3.57,36.27,57.67,57.67,44.65,61.39-13.03,3.72-36.28-25.43-61.39-22.95-25.12,2.48-24.19,28.52-31.63,25.05s-2.48-12.03-2.48-24.81-3.25-17.45-13.64-23.8C16.45,85.34,2.66,96.66,0.18,86.12s21.39-5.65,22.32-22.08C23.43,47.6,-6.03,30.93,2.66,23.49Z" fill="#6b46c1" fill-rule="evenodd"/><g id="eesKywzNGDd4_ts" transform="translate(59.494997,78) scale(1,1)"><g transform="translate(-59.494997,-78)"><path d="M59.5,84.51c1.73,0,3.4-.69,4.63-1.91c1.22-1.22,1.91-2.88,1.91-4.6c0-1.73-.69-3.39-1.91-4.61-1.23-1.22-2.9-1.91-4.63-1.91-1.74,0-3.41.69-4.64,1.91-1.22,1.22-1.91,2.88-1.91,4.61c0,1.72.69,3.38,1.91,4.6c1.23,1.22,2.9,1.91,4.64,1.91Z" fill="#d4caed"/><path d="M36.19,76.79C39.44,67.03,48.64,60,59.5,60c10.85,0,20.05,7.03,23.3,16.77.26.79.26,1.64,0,2.43C79.55,88.96,70.35,96,59.49,96c-10.85,0-20.05-7.04-23.3-16.78-.26-.79-.26-1.64,0-2.43ZM70.95,78c0,3.03-1.2,5.95-3.35,8.09-2.15,2.15-5.07,3.36-8.1,3.36-3.04,0-5.96-1.21-8.11-3.36-2.15-2.14-3.35-5.06-3.35-8.09c0-3.04,1.2-5.96,3.35-8.1c2.15-2.15,5.07-3.36,8.11-3.36c3.03,0,5.95,1.21,8.1,3.36c2.15,2.14,3.35,5.06,3.35,8.1Z" fill="#d4caed" fill-rule="evenodd"/></g></g><rect style="mix-blend-mode:multiply" width="138" height="70.3155" rx="0" ry="0" transform="translate(0 70.3155)" opacity="0.8" fill="url(#eesKywzNGDd7-fill)" stroke-width="0"/></svg>
