<svg width="63.000000" height="64.201233" viewBox="0 0 63 64.2012" fill="none" xmlns="http://www.w3.org/2000/svg" xmlns:xlink="http://www.w3.org/1999/xlink">
	<desc>
			Created with Pixso.
	</desc>
	<defs/>
	<path id="Vector 5" d="M1.21 10.72C5.17 7.32 13.1 21.76 24.42 21.76C35.75 21.76 49.05 -4 53.01 0.53C56.98 5.06 40.06 18.51 41.69 35.07C43.32 51.63 68.02 61.39 62.07 63.09C56.13 64.79 45.51 51.49 34.05 52.62C22.58 53.75 23.01 65.64 19.61 64.05C16.21 62.47 18.48 58.56 18.48 52.73C18.48 46.89 16.99 44.76 12.25 41.86C7.51 38.96 1.21 44.12 0.08 39.31C-1.05 34.5 9.84 36.73 10.27 29.23C10.69 21.73 -2.75 14.12 1.21 10.72Z" fill="#E7E0F5" fill-opacity="1.000000" fill-rule="evenodd"/>
	<path id="Vector 3 (Stroke)" d="M11.51 20.91C11.97 20.91 12.34 21.3 12.34 21.77C12.34 22.25 12.34 37.64 12.34 37.64L15.71 37.64L15.71 31.01C15.71 30.53 16.08 30.15 16.54 30.15C16.99 30.15 17.37 30.53 17.37 31.01L17.37 37.64L26.71 37.64C27.17 37.64 27.54 38.02 27.54 38.5L27.54 53.32C27.54 54.24 26.79 54.98 25.88 54.98L25.88 54.98L22.02 54.98C21.56 54.98 21.19 55.36 21.19 55.84L21.19 58.55C21.19 59.03 20.82 59.41 20.36 59.41C19.9 59.41 19.53 59.03 19.53 58.55L19.53 55.84C19.53 54.41 20.65 53.26 22.02 53.26L25.88 53.26L25.88 50.16L22.48 50.16C21.11 50.16 21.11 48.44 22.48 48.44L25.88 48.44L25.88 44.48L20.93 44.48C20.47 44.48 20.1 44.09 20.1 43.62C20.1 43.14 20.47 42.76 20.93 42.76L25.88 42.76L25.88 39.36L15.67 39.36L14.01 39.36L5.68 39.36C4.04 39.36 4.04 37.64 5.68 37.64L10.68 37.64C10.68 37.64 10.68 22.25 10.68 21.77C10.68 21.3 11.05 20.91 11.51 20.91Z" fill="#6B46C1" fill-opacity="1.000000" fill-rule="evenodd"/>
	<path id="Ellipse 5 (Stroke)" d="M18.48 44.21C18.84 44.21 19.13 43.92 19.13 43.56C19.13 43.2 18.84 42.91 18.48 42.91C18.12 42.91 17.83 43.2 17.83 43.56C17.83 43.92 18.12 44.21 18.48 44.21ZM18.48 45.82C19.73 45.82 20.74 44.81 20.74 43.56C20.74 42.31 19.73 41.29 18.48 41.29C17.23 41.29 16.21 42.31 16.21 43.56C16.21 44.81 17.23 45.82 18.48 45.82Z" fill="#6B46C1" fill-opacity="1.000000" fill-rule="evenodd"/>
	<path id="Ellipse 9 (Stroke)" d="M3.76 39.11C4.12 39.11 4.4 38.82 4.4 38.46C4.4 38.11 4.12 37.82 3.76 37.82C3.4 37.82 3.11 38.11 3.11 38.46C3.11 38.82 3.4 39.11 3.76 39.11ZM3.76 40.73C5.01 40.73 6.02 39.71 6.02 38.46C6.02 37.21 5.01 36.2 3.76 36.2C2.51 36.2 1.49 37.21 1.49 38.46C1.49 39.71 2.51 40.73 3.76 40.73Z" fill="#6B46C1" fill-opacity="1.000000" fill-rule="evenodd"/>
	<path id="Ellipse 11 (Stroke)" d="M16.5 29.49C16.85 29.49 17.14 29.2 17.14 28.84C17.14 28.48 16.85 28.19 16.5 28.19C16.14 28.19 15.85 28.48 15.85 28.84C15.85 29.2 16.14 29.49 16.5 29.49ZM16.5 31.1C17.75 31.1 18.76 30.09 18.76 28.84C18.76 27.59 17.75 26.57 16.5 26.57C15.25 26.57 14.23 27.59 14.23 28.84C14.23 30.09 15.25 31.1 16.5 31.1Z" fill="#6B46C1" fill-opacity="1.000000" fill-rule="evenodd"/>
	<path id="Ellipse 10 (Stroke)" d="M11.4 20.43C11.76 20.43 12.05 20.14 12.05 19.78C12.05 19.42 11.76 19.13 11.4 19.13C11.04 19.13 10.75 19.42 10.75 19.78C10.75 20.14 11.04 20.43 11.4 20.43ZM11.4 22.04C12.65 22.04 13.67 21.03 13.67 19.78C13.67 18.53 12.65 17.51 11.4 17.51C10.15 17.51 9.14 18.53 9.14 19.78C9.14 21.03 10.15 22.04 11.4 22.04Z" fill="#6B46C1" fill-opacity="1.000000" fill-rule="evenodd"/>
	<path id="Ellipse 10 (Stroke)" d="M3.76 14.2C4.12 14.2 4.4 13.91 4.4 13.55C4.4 13.19 4.12 12.9 3.76 12.9C3.4 12.9 3.11 13.19 3.11 13.55C3.11 13.91 3.4 14.2 3.76 14.2ZM3.76 15.82C5.01 15.82 6.02 14.8 6.02 13.55C6.02 12.3 5.01 11.29 3.76 11.29C2.51 11.29 1.49 12.3 1.49 13.55C1.49 14.8 2.51 15.82 3.76 15.82Z" fill="#6B46C1" fill-opacity="1.000000" fill-rule="evenodd"/>
	<path id="Ellipse 6 (Stroke)" d="M20.18 61.19C20.53 61.19 20.82 60.9 20.82 60.54C20.82 60.19 20.53 59.9 20.18 59.9C19.82 59.9 19.53 60.19 19.53 60.54C19.53 60.9 19.82 61.19 20.18 61.19ZM20.18 62.81C21.43 62.81 22.44 61.79 22.44 60.54C22.44 59.29 21.43 58.28 20.18 58.28C18.93 58.28 17.91 59.29 17.91 60.54C17.91 61.79 18.93 62.81 20.18 62.81Z" fill="#6B46C1" fill-opacity="1.000000" fill-rule="evenodd"/>
	<path id="Ellipse 7 (Stroke)" d="M20.74 50.43C21.1 50.43 21.39 50.14 21.39 49.79C21.39 49.43 21.1 49.14 20.74 49.14C20.39 49.14 20.1 49.43 20.1 49.79C20.1 50.14 20.39 50.43 20.74 50.43ZM20.74 52.05C21.99 52.05 23.01 51.04 23.01 49.79C23.01 48.54 21.99 47.52 20.74 47.52C19.49 47.52 18.48 48.54 18.48 49.79C18.48 51.04 19.49 52.05 20.74 52.05Z" fill="#6B46C1" fill-opacity="1.000000" fill-rule="evenodd"/>
	<path id="Line 46 (Border)" d="M5.49 13.52L10.59 18.61L9.39 19.81L4.29 14.72L5.49 13.52Z" fill="#6B46C1" fill-opacity="1.000000" fill-rule="evenodd"/>
	<path id="Line 48 (Border)" d="M22.16 25.44L22.16 37.9L20.46 37.9L20.46 25.44L22.16 25.44Z" fill="#6B46C1" fill-opacity="1.000000" fill-rule="evenodd"/>
	<path id="Ellipse 11 (Stroke)" d="M21.31 24.39C21.67 24.39 21.96 24.1 21.96 23.74C21.96 23.39 21.67 23.1 21.31 23.1C20.95 23.1 20.66 23.39 20.66 23.74C20.66 24.1 20.95 24.39 21.31 24.39ZM21.31 26.01C22.56 26.01 23.57 24.99 23.57 23.74C23.57 22.49 22.56 21.48 21.31 21.48C20.06 21.48 19.04 22.49 19.04 23.74C19.04 24.99 20.06 26.01 21.31 26.01Z" fill="#6B46C1" fill-opacity="1.000000" fill-rule="evenodd"/>
	<path id="Intersect" d="M26.8148 55.6227C28.5115 54.1266 30.8051 52.9429 34.0529 52.6221C40.3943 51.9958 46.476 55.7865 51.6511 59.0121C55.8323 61.6182 59.4218 63.8555 62.0784 63.0965C64.4188 62.4279 62.0099 60.5089 58.1292 57.4172C52.152 52.6555 42.6832 45.1121 41.6962 35.0709C40.7711 25.6581 45.8361 17.2513 49.6531 10.9161C52.5515 6.10535 54.7302 2.4892 53.0197 0.534241C51.2114 -1.53235 47.4584 2.70679 42.8361 7.92773C37.4848 13.9722 30.9683 21.3327 24.9559 21.7475C24.1415 26.5766 23.5787 31.5847 23.5787 36.2032C23.5787 43.881 25.134 50.6016 26.8148 55.6227Z" clip-rule="evenodd" fill="#6B46C1" fill-opacity="1.000000" fill-rule="evenodd"/>
	<path id="Vector 6" d="M25.84 36.48C25.84 31.32 28.5 27.14 31.78 27.14C35.07 27.14 37.73 31.32 37.73 36.48C37.73 41.64 35.07 45.82 31.78 45.82C28.5 45.82 25.84 41.64 25.84 36.48Z" fill="#E7E0F5" fill-opacity="1.000000" fill-rule="evenodd"/>
</svg>
